# xmcd CD database file
#
# Track frame offsets:
#	150
#	6257
#	15788
#	22076
#	28555
#	41680
#	50569
#	61568
#	70371
#	82145
#	90071
#	94808
#	102594
#
# Disc length: 1423 seconds
#
# Revision: 0
# Processed by: cddbd v1.5.2PL0 Copyright (c) Steve Scherf et al.
# Submitted via: CDex 1.70beta2
#
DISCID=98058d0d
DTITLE=Miles the Crocodile - Mile the Crocodile Plays the Colors of Jazz
DYEAR=2006
DGENRE=Jazz
TTITLE0=Introducing Miles the Crocodile
TTITLE1=When Jazz is White
TTITLE2=Red Jazz Red
TTITLE3=When Jazz is Yellow
TTITLE4=Blue Jazz Blue
TTITLE5=When Jazz is Purple
TTITLE6=Pink Jazz Pink
TTITLE7=When Jazz is Black
TTITLE8=When Jazz is Green
TTITLE9=Brown Jazz Brown
TTITLE10=When Jazz is Grey
TTITLE11=Orange Jazz Orange
TTITLE12=Jazz Colors Appear
EXTD=YEAR: 2006
EXTT0=
EXTT1=
EXTT2=
EXTT3=
EXTT4=
EXTT5=
EXTT6=
EXTT7=
EXTT8=
EXTT9=
EXTT10=
EXTT11=
EXTT12=
PLAYORDER=
